# xmcd CD database file
#
# Track frame offsets:
#	150
#	11932
#	25268
#	34980
#	44561
#	55953
#	68366
#	78963
#	91189
#	103344
#	122455
#	133965
#	147291
#	158051
#	169785
#	182252
#	193850
#	205661
#	215858
#	231348
#
# Disc length: 3277 seconds
#
# Revision: 0
# Processed by: cddbd v1.5.2PL0 Copyright (c) Steve Scherf et al.
# Submitted via: ACXtractor (MTCDDB.DLL V2003.12.21)
#
DISCID=1e0ccb14
DTITLE=Reg Lindsay - Moving on - No Dress Rehearsal
DYEAR=2008
DGENRE=Country
TTITLE0=The Wayward
TTITLE1=Skuthorpe's Last Ride
TTITLE2=Geisha Girl
TTITLE3=Lonely Road
TTITLE4=Twinkle Chimes (Instrumental)
TTITLE5=The Auctioneer
TTITLE6=Battle of New Orleans
TTITLE7=Big Midnight Special
TTITLE8=Too Old to Learn
TTITLE9=Silence on the Line
TTITLE10=Rainin' in Kentucky
TTITLE11=Slip Away
TTITLE12=Bad Whiskey going Down
TTITLE13=Good Old Country Picking
TTITLE14=Ladies Love Outlaws
TTITLE15=Mama Don't let Your Babies grow up to be Cowboys
TTITLE16=Goat Roper
TTITLE17=Goin' and Blowin'
TTITLE18=If I Never met Her (I wouldn't miss her now)
TTITLE19=Down in the Well
EXTD=ID3G:   2 YEAR: 2008
EXTT0=
EXTT1=
EXTT2=
EXTT3=
EXTT4=
EXTT5=
EXTT6=
EXTT7=
EXTT8=
EXTT9=
EXTT10=
EXTT11=
EXTT12=
EXTT13=
EXTT14=
EXTT15=
EXTT16=
EXTT17=
EXTT18=
EXTT19=
PLAYORDER=
